<svg width="18" height="18" viewBox="0 0 18 18" fill="none" xmlns="http://www.w3.org/2000/svg">
<g clip-path="url(#clip0_5911_6602)">
<path fill-rule="evenodd" clip-rule="evenodd" d="M9 0C4.02944 0 0 4.02944 0 9C0 13.9706 4.02944 18 9 18C13.9706 18 18 13.9706 18 9C18 4.02944 13.9706 0 9 0Z" fill="#F7A602"/>
<g clip-path="url(#clip1_5911_6602)">
<path d="M10.2395 4.47448H12.098L12.7779 3.4375H5.79713L5.11719 4.47448H6.29576C7.51967 4.47448 8.65291 4.56466 9.10621 5.60164H5.79713L5.11719 6.63862H9.2422V6.68371C9.2422 7.45018 8.60758 8.62242 6.52241 8.62242H5.47983V9.61432L9.55951 14.7091H11.418L7.15703 9.43397C8.92489 9.3438 10.5568 8.3519 10.7834 6.63862H12.098L12.7779 5.60164H10.7381C10.6928 5.19586 10.5114 4.79009 10.2395 4.47448Z" fill="white"/>
</g>
</g>
<defs>
<clipPath id="clip0_5911_6602">
<rect width="18" height="18" fill="white"/>
</clipPath>
<clipPath id="clip1_5911_6602">
<rect width="7.70607" height="11.2716" fill="white" transform="translate(5.11719 3.39062)"/>
</clipPath>
</defs>
</svg>
